<?xml version="1.0" standalone="no"?><!DOCTYPE svg PUBLIC "-//W3C//DTD SVG 1.1//EN" "http://www.w3.org/Graphics/SVG/1.1/DTD/svg11.dtd"><svg xmlns:xlink="http://www.w3.org/1999/xlink" version="1.1" class="highcharts-root" style="font-family: RijksoverheidSans, verdana, serif; font-size: 12px;" xmlns="http://www.w3.org/2000/svg" width="600" height="900" viewBox="0 0 600 900"><desc>Created with Highcharts 10.0.0</desc><defs><clipPath id="highcharts-n12yh2p-343-"><rect x="0" y="0" width="642" height="409" fill="none"></rect></clipPath><clipPath id="highcharts-n12yh2p-364-"><rect x="0" y="0" width="642" height="409" fill="none"></rect></clipPath></defs><rect fill="rgb(255, 255, 255)" fill-opacity=" 0.0" class="highcharts-background" x="0" y="0" width="600" height="900" rx="0" ry="0"></rect><rect fill="none" class="highcharts-plot-background" x="180" y="133" width="410" height="642"></rect><g class="highcharts-pane-group" data-z-index="0"></g><g class="highcharts-grid highcharts-xaxis-grid" data-z-index="1"><path fill="none" stroke-dasharray="none" data-z-index="1" class="highcharts-grid-line" d="M 180 165.5 L 590 165.5" opacity="1"></path><path fill="none" stroke-dasharray="none" data-z-index="1" class="highcharts-grid-line" d="M 180 197.5 L 590 197.5" opacity="1"></path><path fill="none" stroke-dasharray="none" data-z-index="1" class="highcharts-grid-line" d="M 180 229.5 L 590 229.5" opacity="1"></path><path fill="none" stroke-dasharray="none" data-z-index="1" class="highcharts-grid-line" d="M 180 261.5 L 590 261.5" opacity="1"></path><path fill="none" stroke-dasharray="none" data-z-index="1" class="highcharts-grid-line" d="M 180 294.5 L 590 294.5" opacity="1"></path><path fill="none" stroke-dasharray="none" data-z-index="1" class="highcharts-grid-line" d="M 180 326.5 L 590 326.5" opacity="1"></path><path fill="none" stroke-dasharray="none" data-z-index="1" class="highcharts-grid-line" d="M 180 358.5 L 590 358.5" opacity="1"></path><path fill="none" stroke-dasharray="none" data-z-index="1" class="highcharts-grid-line" d="M 180 390.5 L 590 390.5" opacity="1"></path><path fill="none" stroke-dasharray="none" data-z-index="1" class="highcharts-grid-line" d="M 180 422.5 L 590 422.5" opacity="1"></path><path fill="none" stroke-dasharray="none" data-z-index="1" class="highcharts-grid-line" d="M 180 454.5 L 590 454.5" opacity="1"></path><path fill="none" stroke-dasharray="none" data-z-index="1" class="highcharts-grid-line" d="M 180 486.5 L 590 486.5" opacity="1"></path><path fill="none" stroke-dasharray="none" data-z-index="1" class="highcharts-grid-line" d="M 180 518.5 L 590 518.5" opacity="1"></path><path fill="none" stroke-dasharray="none" data-z-index="1" class="highcharts-grid-line" d="M 180 550.5 L 590 550.5" opacity="1"></path><path fill="none" stroke-dasharray="none" data-z-index="1" class="highcharts-grid-line" d="M 180 582.5 L 590 582.5" opacity="1"></path><path fill="none" stroke-dasharray="none" data-z-index="1" class="highcharts-grid-line" d="M 180 615.5 L 590 615.5" opacity="1"></path><path fill="none" stroke-dasharray="none" data-z-index="1" class="highcharts-grid-line" d="M 180 647.5 L 590 647.5" opacity="1"></path><path fill="none" stroke-dasharray="none" data-z-index="1" class="highcharts-grid-line" d="M 180 679.5 L 590 679.5" opacity="1"></path><path fill="none" stroke-dasharray="none" data-z-index="1" class="highcharts-grid-line" d="M 180 711.5 L 590 711.5" opacity="1"></path><path fill="none" stroke-dasharray="none" data-z-index="1" class="highcharts-grid-line" d="M 180 743.5 L 590 743.5" opacity="1"></path><path fill="none" stroke-dasharray="none" data-z-index="1" class="highcharts-grid-line" d="M 180 775.5 L 590 775.5" opacity="1"></path><path fill="none" stroke-dasharray="none" data-z-index="1" class="highcharts-grid-line" d="M 180 133.5 L 590 133.5" opacity="1"></path></g><g class="highcharts-grid highcharts-yaxis-grid" data-z-index="1"><path fill="none" stroke="#535353" stroke-width="1" stroke-dasharray="none" data-z-index="1" class="highcharts-grid-line" d="M 179.5 133 L 179.5 775" opacity="1"></path><path fill="none" stroke="#535353" stroke-width="1" stroke-dasharray="none" data-z-index="1" class="highcharts-grid-line" d="M 247.5 133 L 247.5 775" opacity="1"></path><path fill="none" stroke="#535353" stroke-width="1" stroke-dasharray="none" data-z-index="1" class="highcharts-grid-line" d="M 316.5 133 L 316.5 775" opacity="1"></path><path fill="none" stroke="#535353" stroke-width="1" stroke-dasharray="none" data-z-index="1" class="highcharts-grid-line" d="M 384.5 133 L 384.5 775" opacity="1"></path><path fill="none" stroke="#535353" stroke-width="1" stroke-dasharray="none" data-z-index="1" class="highcharts-grid-line" d="M 452.5 133 L 452.5 775" opacity="1"></path><path fill="none" stroke="#535353" stroke-width="1" stroke-dasharray="none" data-z-index="1" class="highcharts-grid-line" d="M 521.5 133 L 521.5 775" opacity="1"></path><path fill="none" stroke="#535353" stroke-width="1" stroke-dasharray="none" data-z-index="1" class="highcharts-grid-line" d="M 590.5 133 L 590.5 775" opacity="1"></path></g><rect fill="none" class="highcharts-plot-border" data-z-index="1" x="180" y="133" width="410" height="642"></rect><g class="highcharts-axis highcharts-xaxis" data-z-index="2"><path fill="none" class="highcharts-tick" stroke="#535353" stroke-width="2" d="M 180 165 L 176 165" opacity="1"></path><path fill="none" class="highcharts-tick" stroke="#535353" stroke-width="2" d="M 180 197 L 176 197" opacity="1"></path><path fill="none" class="highcharts-tick" stroke="#535353" stroke-width="2" d="M 180 229 L 176 229" opacity="1"></path><path fill="none" class="highcharts-tick" stroke="#535353" stroke-width="2" d="M 180 261 L 176 261" opacity="1"></path><path fill="none" class="highcharts-tick" stroke="#535353" stroke-width="2" d="M 180 294 L 176 294" opacity="1"></path><path fill="none" class="highcharts-tick" stroke="#535353" stroke-width="2" d="M 180 326 L 176 326" opacity="1"></path><path fill="none" class="highcharts-tick" stroke="#535353" stroke-width="2" d="M 180 358 L 176 358" opacity="1"></path><path fill="none" class="highcharts-tick" stroke="#535353" stroke-width="2" d="M 180 390 L 176 390" opacity="1"></path><path fill="none" class="highcharts-tick" stroke="#535353" stroke-width="2" d="M 180 422 L 176 422" opacity="1"></path><path fill="none" class="highcharts-tick" stroke="#535353" stroke-width="2" d="M 180 454 L 176 454" opacity="1"></path><path fill="none" class="highcharts-tick" stroke="#535353" stroke-width="2" d="M 180 486 L 176 486" opacity="1"></path><path fill="none" class="highcharts-tick" stroke="#535353" stroke-width="2" d="M 180 518 L 176 518" opacity="1"></path><path fill="none" class="highcharts-tick" stroke="#535353" stroke-width="2" d="M 180 550 L 176 550" opacity="1"></path><path fill="none" class="highcharts-tick" stroke="#535353" stroke-width="2" d="M 180 582 L 176 582" opacity="1"></path><path fill="none" class="highcharts-tick" stroke="#535353" stroke-width="2" d="M 180 615 L 176 615" opacity="1"></path><path fill="none" class="highcharts-tick" stroke="#535353" stroke-width="2" d="M 180 647 L 176 647" opacity="1"></path><path fill="none" class="highcharts-tick" stroke="#535353" stroke-width="2" d="M 180 679 L 176 679" opacity="1"></path><path fill="none" class="highcharts-tick" stroke="#535353" stroke-width="2" d="M 180 711 L 176 711" opacity="1"></path><path fill="none" class="highcharts-tick" stroke="#535353" stroke-width="2" d="M 180 743 L 176 743" opacity="1"></path><path fill="none" class="highcharts-tick" stroke="#535353" stroke-width="2" d="M 180 775 L 176 775" opacity="1"></path><path fill="none" class="highcharts-tick" stroke="#535353" stroke-width="2" d="M 180 133 L 176 133" opacity="1"></path><path fill="none" class="highcharts-axis-line" stroke="#535353" stroke-width="2" data-z-index="7" d="M 180 133 L 180 775"></path></g><g class="highcharts-axis highcharts-yaxis" data-z-index="2"><text x="590" data-z-index="7" text-anchor="end" transform="translate(0,0)" class="highcharts-axis-title" style="color: rgb(1, 104, 155); font-size: 10pt; white-space: nowrap; fill: rgb(1, 104, 155);" y="864.9831833262105">Absolute toename in vóórkomen tussen 2015-2040</text><path fill="none" class="highcharts-axis-line" data-z-index="7" d="M 180 775 L 590 775"></path></g><g class="highcharts-series-group" data-z-index="3"><g class="highcharts-series highcharts-series-0 highcharts-bar-series highcharts-color-0" data-z-index="0.1" opacity="1" transform="translate(590,775) rotate(90) scale(-1,1) scale(1 1)" clip-path="url(#highcharts-n12yh2p-364-)"><rect x="612" y="41" width="27" height="370" fill="#42145f" opacity="1" class="highcharts-point highcharts-color-0"></rect><rect x="580" y="278" width="27" height="133" fill="#42145f" opacity="1" class="highcharts-point highcharts-color-0"></rect><rect x="548" y="281" width="27" height="130" fill="#42145f" opacity="1" class="highcharts-point highcharts-color-0"></rect><rect x="516" y="287" width="27" height="124" fill="#42145f" opacity="1" class="highcharts-point highcharts-color-0"></rect><rect x="484" y="308" width="27" height="103" fill="#42145f" opacity="1" class="highcharts-point highcharts-color-0"></rect><rect x="452" y="317" width="27" height="94" fill="#42145f" opacity="1" class="highcharts-point highcharts-color-0"></rect><rect x="420" y="331" width="27" height="80" fill="#42145f" opacity="1" class="highcharts-point highcharts-color-0"></rect><rect x="388" y="335" width="27" height="76" fill="#42145f" opacity="1" class="highcharts-point highcharts-color-0"></rect><rect x="356" y="336" width="27" height="75" fill="#42145f" opacity="1" class="highcharts-point highcharts-color-0"></rect><rect x="324" y="343" width="27" height="68" fill="#42145f" opacity="1" class="highcharts-point highcharts-color-0"></rect><rect x="291" y="343" width="27" height="68" fill="#42145f" opacity="1" class="highcharts-point highcharts-color-0"></rect><rect x="259" y="351" width="27" height="60" fill="#42145f" opacity="1" class="highcharts-point highcharts-color-0"></rect><rect x="227" y="353" width="27" height="58" fill="#42145f" opacity="1" class="highcharts-point highcharts-color-0"></rect><rect x="195" y="369" width="27" height="42" fill="#42145f" opacity="1" class="highcharts-point highcharts-color-0"></rect><rect x="163" y="380" width="27" height="31" fill="#42145f" opacity="1" class="highcharts-point highcharts-color-0"></rect><rect x="131" y="389" width="27" height="22" fill="#42145f" opacity="1" class="highcharts-point highcharts-color-0"></rect><rect x="99" y="390" width="27" height="21" fill="#42145f" opacity="1" class="highcharts-point highcharts-color-0"></rect><rect x="67" y="391" width="27" height="20" fill="#42145f" opacity="1" class="highcharts-point highcharts-color-0"></rect><rect x="35" y="393" width="27" height="18" fill="#42145f" opacity="1" class="highcharts-point highcharts-color-0"></rect><rect x="3" y="395" width="27" height="16" fill="#42145f" opacity="1" class="highcharts-point highcharts-color-0"></rect></g><g class="highcharts-markers highcharts-series-0 highcharts-bar-series highcharts-color-0" data-z-index="0.1" opacity="1" transform="translate(590,775) rotate(90) scale(-1,1) scale(1 1)" clip-path="none"></g></g><text x="300" text-anchor="middle" class="highcharts-title" data-z-index="4" style="color: rgb(1, 104, 155); font-size: 20px; font-weight: bold; fill: rgb(1, 104, 155);" y="25">Artrose en diabetes behoren ook tot de<tspan dy="23" x="300">​</tspan>grootste stijgers in aantal; daarnaast zal het<tspan dy="23" x="300">​</tspan>aantal mensen met gezichtsstoornissen en<tspan dy="23" x="300">​</tspan>coronaire hartziekten sterk toenemen tot 2040</text><text x="300" text-anchor="middle" class="highcharts-subtitle" data-z-index="4" style="color: rgb(1, 104, 155); font-size: 16px; font-weight: bold; fill: rgb(1, 104, 155);" y="120"></text><text x="10" text-anchor="start" class="highcharts-caption" data-z-index="4" style="color: rgb(102, 102, 102); fill: rgb(102, 102, 102);" y="897"></text><g class="highcharts-axis-labels highcharts-xaxis-labels" data-z-index="7"><text x="165" text-anchor="end" transform="translate(0,0)" style="color: rgb(0, 0, 0); cursor: default; font-size: 9pt; fill: rgb(0, 0, 0);" y="154" opacity="1">Artrose</text><text x="165" text-anchor="end" transform="translate(0,0)" style="color: rgb(0, 0, 0); cursor: default; font-size: 9pt; fill: rgb(0, 0, 0);" y="186" opacity="1">Gezichtsstoornissen</text><text x="165" text-anchor="end" transform="translate(0,0)" style="color: rgb(0, 0, 0); cursor: default; font-size: 9pt; fill: rgb(0, 0, 0);" y="218" opacity="1">Diabetes</text><text x="165" text-anchor="end" transform="translate(0,0)" style="color: rgb(0, 0, 0); cursor: default; font-size: 9pt; fill: rgb(0, 0, 0);" y="250" opacity="1">Coronaire hartziekten</text><text x="165" text-anchor="end" transform="translate(0,0)" style="color: rgb(0, 0, 0); cursor: default; font-size: 9pt; fill: rgb(0, 0, 0);" y="282" opacity="1">Gehoorstoornissen</text><text x="165" text-anchor="end" transform="translate(0,0)" style="color: rgb(0, 0, 0); cursor: default; font-size: 9pt; fill: rgb(0, 0, 0);" y="314" opacity="1">Nek- en rugklachten</text><text x="165" text-anchor="end" transform="translate(0,0)" style="color: rgb(0, 0, 0); cursor: default; font-size: 9pt; fill: rgb(0, 0, 0);" y="346" opacity="1">Beroerte</text><text x="165" text-anchor="end" transform="translate(0,0)" style="color: rgb(0, 0, 0); cursor: default; font-size: 9pt; fill: rgb(0, 0, 0);" y="379" opacity="1">COPD</text><text x="165" text-anchor="end" transform="translate(0,0)" style="color: rgb(0, 0, 0); cursor: default; font-size: 9pt; fill: rgb(0, 0, 0);" y="411" opacity="1">Hartritmestoornis</text><text x="165" text-anchor="end" transform="translate(0,0)" style="color: rgb(0, 0, 0); cursor: default; font-size: 9pt; fill: rgb(0, 0, 0);" y="443" opacity="1">Osteoporose</text><text x="165" text-anchor="end" transform="translate(0,0)" style="color: rgb(0, 0, 0); cursor: default; font-size: 9pt; fill: rgb(0, 0, 0);" y="475" opacity="1">Hartfalen</text><text x="165" text-anchor="end" transform="translate(0,0)" style="color: rgb(0, 0, 0); cursor: default; font-size: 9pt; fill: rgb(0, 0, 0);" y="507" opacity="1">Dementie</text><text x="165" text-anchor="end" transform="translate(0,0)" style="color: rgb(0, 0, 0); cursor: default; font-size: 9pt; fill: rgb(0, 0, 0);" y="539" opacity="1">Onderste luchtweginf.</text><text x="165" text-anchor="end" transform="translate(0,0)" style="color: rgb(0, 0, 0); cursor: default; font-size: 9pt; fill: rgb(0, 0, 0);" y="571" opacity="1">Contacteczeem</text><text x="165" text-anchor="end" transform="translate(0,0)" style="color: rgb(0, 0, 0); cursor: default; font-size: 9pt; fill: rgb(0, 0, 0);" y="603" opacity="1">ADHD</text><text x="165" text-anchor="end" transform="translate(0,0)" style="color: rgb(0, 0, 0); cursor: default; font-size: 9pt; fill: rgb(0, 0, 0);" y="635" opacity="1">Darmkanker</text><text x="165" text-anchor="end" transform="translate(0,0)" style="color: rgb(0, 0, 0); cursor: default; font-size: 9pt; fill: rgb(0, 0, 0);" y="667" opacity="1">Reuma</text><text x="165" text-anchor="end" transform="translate(0,0)" style="color: rgb(0, 0, 0); cursor: default; font-size: 9pt; fill: rgb(0, 0, 0);" y="700" opacity="1">Endocard/klepafwijkingen</text><text x="165" text-anchor="end" transform="translate(0,0)" style="color: rgb(0, 0, 0); cursor: default; font-size: 9pt; fill: rgb(0, 0, 0);" y="732" opacity="1">Borstkanker</text><text x="165" text-anchor="end" transform="translate(0,0)" style="color: rgb(0, 0, 0); cursor: default; font-size: 9pt; fill: rgb(0, 0, 0);" y="764" opacity="1">Huidkanker</text></g><g class="highcharts-axis-labels highcharts-yaxis-labels" data-z-index="7"><text x="182.82842712474618" text-anchor="end" transform="translate(0,0) rotate(-45 182.82842712474618 791)" style="color: rgb(0, 0, 0); cursor: default; font-size: 9pt; fill: rgb(0, 0, 0);" y="791" opacity="1">0</text><text x="251.16176045807617" text-anchor="end" transform="translate(0,0) rotate(-45 251.16176045807617 791)" style="color: rgb(0, 0, 0); cursor: default; font-size: 9pt; fill: rgb(0, 0, 0);" y="791" opacity="1">200 000</text><text x="319.4950937914162" text-anchor="end" transform="translate(0,0) rotate(-45 319.4950937914162 791)" style="color: rgb(0, 0, 0); cursor: default; font-size: 9pt; fill: rgb(0, 0, 0);" y="791" opacity="1">400 000</text><text x="387.8284271247462" text-anchor="end" transform="translate(0,0) rotate(-45 387.8284271247462 791)" style="color: rgb(0, 0, 0); cursor: default; font-size: 9pt; fill: rgb(0, 0, 0);" y="791" opacity="1">600 000</text><text x="456.16176045807623" text-anchor="end" transform="translate(0,0) rotate(-45 456.16176045807623 791)" style="color: rgb(0, 0, 0); cursor: default; font-size: 9pt; fill: rgb(0, 0, 0);" y="791" opacity="1">800 000</text><text x="524.4950937914163" text-anchor="end" transform="translate(0,0) rotate(-45 524.4950937914163 791)" style="color: rgb(0, 0, 0); cursor: default; font-size: 9pt; fill: rgb(0, 0, 0);" y="791" opacity="1">1 000 000</text><text x="592.8284271247462" text-anchor="end" transform="translate(0,0) rotate(-45 592.8284271247462 791)" style="color: rgb(0, 0, 0); cursor: default; font-size: 9pt; fill: rgb(0, 0, 0);" y="791" opacity="1">1 200 000</text></g><text x="0" class="highcharts-credits" text-anchor="start" data-z-index="8" y="895" style="cursor: text; color: rgb(80, 80, 80); font-size: 11px; fill: rgb(80, 80, 80);">Bron: NIVEL en andere bronnen, RIVM</text></svg>