<svg width="240" height="254" viewBox="0 0 240 254" fill="none" xmlns="http://www.w3.org/2000/svg">
<path d="M226.341 111.213L119.97 14.1851L12.7129 111.206L61.4804 219.5H178.469L226.341 111.213Z" stroke="url(#paint0_angular_332_114)" stroke-width="21"/>
<path d="M64.7319 125V108.08H68.4759V125H64.7319ZM71.6638 125V116C71.6638 115.488 71.6478 114.968 71.6158 114.44C71.5838 113.896 71.5358 113.36 71.4718 112.832H74.9518L75.2158 115.088H74.9278C75.3278 114.288 75.8958 113.672 76.6318 113.24C77.3678 112.808 78.2238 112.592 79.1998 112.592C80.6238 112.592 81.6878 113.008 82.3918 113.84C83.1118 114.656 83.4718 115.928 83.4718 117.656V125H79.8478V117.824C79.8478 116.944 79.6878 116.32 79.3678 115.952C79.0478 115.584 78.5678 115.4 77.9278 115.4C77.1278 115.4 76.4878 115.656 76.0078 116.168C75.5278 116.664 75.2878 117.336 75.2878 118.184V125H71.6638ZM86.3825 125V116C86.3825 115.488 86.3665 114.968 86.3345 114.44C86.3025 113.896 86.2545 113.36 86.1905 112.832H89.6705L89.9345 115.088H89.6465C90.0465 114.288 90.6145 113.672 91.3505 113.24C92.0865 112.808 92.9425 112.592 93.9185 112.592C95.3425 112.592 96.4065 113.008 97.1105 113.84C97.8305 114.656 98.1905 115.928 98.1905 117.656V125H94.5665V117.824C94.5665 116.944 94.4065 116.32 94.0865 115.952C93.7665 115.584 93.2865 115.4 92.6465 115.4C91.8465 115.4 91.2065 115.656 90.7265 116.168C90.2465 116.664 90.0065 117.336 90.0065 118.184V125H86.3825ZM107.221 125.264C105.813 125.264 104.605 125.008 103.597 124.496C102.589 123.984 101.821 123.256 101.293 122.312C100.765 121.352 100.501 120.224 100.501 118.928C100.501 117.664 100.749 116.56 101.245 115.616C101.757 114.672 102.461 113.936 103.357 113.408C104.269 112.864 105.333 112.592 106.549 112.592C107.749 112.592 108.749 112.848 109.549 113.36C110.365 113.872 110.973 114.592 111.373 115.52C111.789 116.432 111.997 117.496 111.997 118.712V119.552H103.477V117.752H109.357L108.949 118.088C108.949 117.08 108.741 116.32 108.325 115.808C107.925 115.28 107.341 115.016 106.573 115.016C105.997 115.016 105.509 115.16 105.109 115.448C104.725 115.72 104.429 116.128 104.221 116.672C104.029 117.2 103.933 117.856 103.933 118.64V119.024C103.933 120.208 104.221 121.088 104.797 121.664C105.389 122.24 106.237 122.528 107.341 122.528C107.997 122.528 108.613 122.448 109.189 122.288C109.781 122.112 110.341 121.84 110.869 121.472L111.877 123.872C111.269 124.32 110.565 124.664 109.765 124.904C108.981 125.144 108.133 125.264 107.221 125.264ZM114.273 125V116.048C114.273 115.52 114.257 114.984 114.225 114.44C114.209 113.896 114.169 113.36 114.105 112.832H117.585L117.993 116.384H117.441C117.601 115.52 117.857 114.808 118.209 114.248C118.577 113.688 119.025 113.272 119.553 113C120.097 112.728 120.713 112.592 121.401 112.592C121.705 112.592 121.945 112.608 122.121 112.64C122.297 112.656 122.473 112.696 122.649 112.76L122.625 115.952C122.289 115.808 122.001 115.72 121.761 115.688C121.537 115.64 121.249 115.616 120.897 115.616C120.225 115.616 119.665 115.744 119.217 116C118.785 116.256 118.457 116.632 118.233 117.128C118.025 117.624 117.921 118.224 117.921 118.928V125H114.273ZM124.164 125V107.336H127.788V125H124.164ZM130.75 125V112.832H134.374V125H130.75ZM130.606 110.84V107.456H134.494V110.84H130.606ZM136.352 130.352C136 130.352 135.64 130.328 135.272 130.28C134.888 130.232 134.544 130.144 134.24 130.016V127.208C134.464 127.272 134.696 127.328 134.936 127.376C135.16 127.424 135.384 127.448 135.608 127.448C136.12 127.448 136.536 127.288 136.856 126.968C137.192 126.664 137.36 126.128 137.36 125.36V112.832H140.984V125.528C140.984 127.112 140.608 128.312 139.856 129.128C139.12 129.944 137.952 130.352 136.352 130.352ZM137.192 110.84V107.456H141.104V110.84H137.192ZM143.922 125V107.336H147.546V117.896H147.594L152.106 112.832H156.426L150.594 119.312V117.992L156.738 125H152.298L147.594 119.72H147.546V125H143.922ZM163.635 125.264C162.227 125.264 161.019 125.008 160.011 124.496C159.003 123.984 158.235 123.256 157.707 122.312C157.179 121.352 156.915 120.224 156.915 118.928C156.915 117.664 157.163 116.56 157.659 115.616C158.171 114.672 158.875 113.936 159.771 113.408C160.683 112.864 161.747 112.592 162.963 112.592C164.163 112.592 165.163 112.848 165.963 113.36C166.779 113.872 167.387 114.592 167.787 115.52C168.203 116.432 168.411 117.496 168.411 118.712V119.552H159.891V117.752H165.771L165.363 118.088C165.363 117.08 165.155 116.32 164.739 115.808C164.339 115.28 163.755 115.016 162.987 115.016C162.411 115.016 161.923 115.16 161.523 115.448C161.139 115.72 160.843 116.128 160.635 116.672C160.443 117.2 160.347 117.856 160.347 118.64V119.024C160.347 120.208 160.635 121.088 161.211 121.664C161.803 122.24 162.651 122.528 163.755 122.528C164.411 122.528 165.027 122.448 165.603 122.288C166.195 122.112 166.755 121.84 167.283 121.472L168.291 123.872C167.683 124.32 166.979 124.664 166.179 124.904C165.395 125.144 164.547 125.264 163.635 125.264ZM83.2179 155V146.048C83.2179 145.52 83.2019 144.984 83.1699 144.44C83.1539 143.896 83.1139 143.36 83.0499 142.832H86.5299L86.9379 146.384H86.3859C86.5459 145.52 86.8019 144.808 87.1539 144.248C87.5219 143.688 87.9699 143.272 88.4979 143C89.0419 142.728 89.6579 142.592 90.3459 142.592C90.6499 142.592 90.8899 142.608 91.0659 142.64C91.2419 142.656 91.4179 142.696 91.5939 142.76L91.5699 145.952C91.2339 145.808 90.9459 145.72 90.7059 145.688C90.4819 145.64 90.1939 145.616 89.8419 145.616C89.1699 145.616 88.6099 145.744 88.1619 146C87.7299 146.256 87.4019 146.632 87.1779 147.128C86.9699 147.624 86.8659 148.224 86.8659 148.928V155H83.2179ZM97.5251 155.264C96.0051 155.264 94.8771 154.848 94.1411 154.016C93.4051 153.168 93.0371 151.888 93.0371 150.176V142.832H96.6611V150.176C96.6611 150.944 96.8131 151.512 97.1171 151.88C97.4371 152.248 97.9251 152.432 98.5811 152.432C99.3011 152.432 99.8931 152.184 100.357 151.688C100.837 151.176 101.077 150.496 101.077 149.648V142.832H104.701V155H101.173V152.672H101.509C101.141 153.488 100.613 154.128 99.9251 154.592C99.2371 155.04 98.4371 155.264 97.5251 155.264ZM107.687 155V142.832H111.311V155H107.687ZM107.543 140.84V137.456H111.431V140.84H107.543ZM114.273 155V146C114.273 145.488 114.257 144.968 114.225 144.44C114.193 143.896 114.145 143.36 114.081 142.832H117.561L117.825 145.088H117.537C117.889 144.32 118.409 143.712 119.097 143.264C119.785 142.816 120.601 142.592 121.545 142.592C122.473 142.592 123.249 142.816 123.873 143.264C124.513 143.696 124.969 144.376 125.241 145.304H124.857C125.209 144.472 125.769 143.816 126.537 143.336C127.305 142.84 128.177 142.592 129.153 142.592C130.529 142.592 131.553 143 132.225 143.816C132.897 144.632 133.233 145.912 133.233 147.656V155H129.609V147.776C129.609 146.928 129.473 146.32 129.201 145.952C128.929 145.584 128.489 145.4 127.881 145.4C127.161 145.4 126.593 145.656 126.177 146.168C125.761 146.68 125.553 147.384 125.553 148.28V155H121.929V147.776C121.929 146.928 121.793 146.32 121.521 145.952C121.249 145.584 120.809 145.4 120.201 145.4C119.481 145.4 118.913 145.656 118.497 146.168C118.097 146.68 117.897 147.384 117.897 148.28V155H114.273ZM141.828 155.264C140.244 155.264 139.052 154.872 138.252 154.088C137.452 153.288 137.052 152.096 137.052 150.512V145.544H134.748V142.832H137.052V139.856L140.676 138.968V142.832H143.796V145.544H140.676V150.32C140.676 151.088 140.836 151.616 141.156 151.904C141.476 152.192 141.884 152.336 142.38 152.336C142.684 152.336 142.932 152.32 143.124 152.288C143.332 152.24 143.548 152.176 143.772 152.096V154.904C143.468 155.032 143.148 155.12 142.812 155.168C142.476 155.232 142.148 155.264 141.828 155.264ZM151.659 155.264C150.251 155.264 149.043 155.008 148.035 154.496C147.027 153.984 146.259 153.256 145.731 152.312C145.203 151.352 144.939 150.224 144.939 148.928C144.939 147.664 145.187 146.56 145.683 145.616C146.195 144.672 146.899 143.936 147.795 143.408C148.707 142.864 149.771 142.592 150.987 142.592C152.187 142.592 153.187 142.848 153.987 143.36C154.803 143.872 155.411 144.592 155.811 145.52C156.227 146.432 156.435 147.496 156.435 148.712V149.552H147.915V147.752H153.795L153.387 148.088C153.387 147.08 153.179 146.32 152.763 145.808C152.363 145.28 151.779 145.016 151.011 145.016C150.435 145.016 149.947 145.16 149.547 145.448C149.163 145.72 148.867 146.128 148.659 146.672C148.467 147.2 148.371 147.856 148.371 148.64V149.024C148.371 150.208 148.659 151.088 149.235 151.664C149.827 152.24 150.675 152.528 151.779 152.528C152.435 152.528 153.051 152.448 153.627 152.288C154.219 152.112 154.779 151.84 155.307 151.472L156.315 153.872C155.707 154.32 155.003 154.664 154.203 154.904C153.419 155.144 152.571 155.264 151.659 155.264Z" fill="black"/>
<path d="M76.824 250L82.008 238.72H84.072L89.32 250H86.792L85.432 246.864L86.408 247.552H79.704L80.696 246.864L79.336 250H76.824ZM83.032 241.344L80.968 246.24L80.536 245.632H85.576L85.208 246.24L83.096 241.344H83.032ZM93.0766 250.176C92.0633 250.176 91.3113 249.899 90.8206 249.344C90.33 248.779 90.0846 247.925 90.0846 246.784V241.888H92.5006V246.784C92.5006 247.296 92.602 247.675 92.8046 247.92C93.018 248.165 93.3433 248.288 93.7806 248.288C94.2606 248.288 94.6553 248.123 94.9646 247.792C95.2846 247.451 95.4446 246.997 95.4446 246.432V241.888H97.8606V250H95.5086V248.448H95.7326C95.4873 248.992 95.1353 249.419 94.6766 249.728C94.218 250.027 93.6846 250.176 93.0766 250.176ZM103.643 250.176C102.587 250.176 101.793 249.915 101.259 249.392C100.726 248.859 100.459 248.064 100.459 247.008V243.696H98.9234V241.888H100.459V239.904L102.875 239.312V241.888H104.955V243.696H102.875V246.88C102.875 247.392 102.982 247.744 103.195 247.936C103.409 248.128 103.681 248.224 104.011 248.224C104.214 248.224 104.379 248.213 104.507 248.192C104.646 248.16 104.79 248.117 104.939 248.064V249.936C104.737 250.021 104.523 250.08 104.299 250.112C104.075 250.155 103.857 250.176 103.643 250.176ZM109.957 250.176C109.093 250.176 108.341 250.005 107.701 249.664C107.072 249.312 106.581 248.821 106.229 248.192C105.888 247.563 105.717 246.811 105.717 245.936C105.717 245.072 105.888 244.325 106.229 243.696C106.581 243.067 107.072 242.581 107.701 242.24C108.341 241.899 109.093 241.728 109.957 241.728C110.821 241.728 111.573 241.899 112.213 242.24C112.853 242.581 113.344 243.067 113.685 243.696C114.037 244.325 114.213 245.072 114.213 245.936C114.213 246.811 114.037 247.563 113.685 248.192C113.344 248.821 112.853 249.312 112.213 249.664C111.573 250.005 110.821 250.176 109.957 250.176ZM109.957 248.352C110.512 248.352 110.949 248.155 111.269 247.76C111.6 247.365 111.765 246.757 111.765 245.936C111.765 245.115 111.6 244.512 111.269 244.128C110.949 243.744 110.512 243.552 109.957 243.552C109.402 243.552 108.96 243.744 108.629 244.128C108.309 244.512 108.149 245.115 108.149 245.936C108.149 246.757 108.309 247.365 108.629 247.76C108.96 248.155 109.402 248.352 109.957 248.352ZM115.773 250V244C115.773 243.659 115.763 243.312 115.741 242.96C115.72 242.597 115.688 242.24 115.645 241.888H117.965L118.141 243.392H117.949C118.216 242.859 118.595 242.448 119.085 242.16C119.576 241.872 120.147 241.728 120.797 241.728C121.747 241.728 122.456 242.005 122.925 242.56C123.405 243.104 123.645 243.952 123.645 245.104V250H121.229V245.216C121.229 244.629 121.123 244.213 120.909 243.968C120.696 243.723 120.376 243.6 119.949 243.6C119.416 243.6 118.989 243.771 118.669 244.112C118.349 244.443 118.189 244.891 118.189 245.456V250H115.773ZM129.426 250.176C128.562 250.176 127.81 250.005 127.17 249.664C126.54 249.312 126.05 248.821 125.698 248.192C125.356 247.563 125.186 246.811 125.186 245.936C125.186 245.072 125.356 244.325 125.698 243.696C126.05 243.067 126.54 242.581 127.17 242.24C127.81 241.899 128.562 241.728 129.426 241.728C130.29 241.728 131.042 241.899 131.682 242.24C132.322 242.581 132.812 243.067 133.154 243.696C133.506 244.325 133.682 245.072 133.682 245.936C133.682 246.811 133.506 247.563 133.154 248.192C132.812 248.821 132.322 249.312 131.682 249.664C131.042 250.005 130.29 250.176 129.426 250.176ZM129.426 248.352C129.98 248.352 130.418 248.155 130.738 247.76C131.068 247.365 131.234 246.757 131.234 245.936C131.234 245.115 131.068 244.512 130.738 244.128C130.418 243.744 129.98 243.552 129.426 243.552C128.871 243.552 128.428 243.744 128.098 244.128C127.778 244.512 127.618 245.115 127.618 245.936C127.618 246.757 127.778 247.365 128.098 247.76C128.428 248.155 128.871 248.352 129.426 248.352ZM135.242 250V244C135.242 243.659 135.231 243.312 135.21 242.96C135.189 242.597 135.157 242.24 135.114 241.888H137.434L137.61 243.392H137.418C137.653 242.88 137.999 242.475 138.458 242.176C138.917 241.877 139.461 241.728 140.09 241.728C140.709 241.728 141.226 241.877 141.642 242.176C142.069 242.464 142.373 242.917 142.554 243.536H142.298C142.533 242.981 142.906 242.544 143.418 242.224C143.93 241.893 144.511 241.728 145.162 241.728C146.079 241.728 146.762 242 147.21 242.544C147.658 243.088 147.882 243.941 147.882 245.104V250H145.466V245.184C145.466 244.619 145.375 244.213 145.194 243.968C145.013 243.723 144.719 243.6 144.314 243.6C143.834 243.6 143.455 243.771 143.178 244.112C142.901 244.453 142.762 244.923 142.762 245.52V250H140.346V245.184C140.346 244.619 140.255 244.213 140.074 243.968C139.893 243.723 139.599 243.6 139.194 243.6C138.714 243.6 138.335 243.771 138.058 244.112C137.791 244.453 137.658 244.923 137.658 245.52V250H135.242ZM149.82 250V241.888H152.236V250H149.82ZM149.724 240.56V238.304H152.316V240.56H149.724ZM158.291 250.176C157.352 250.176 156.547 250.005 155.875 249.664C155.203 249.323 154.691 248.837 154.339 248.208C153.987 247.568 153.811 246.816 153.811 245.952C153.811 245.109 153.976 244.373 154.307 243.744C154.648 243.115 155.117 242.624 155.715 242.272C156.323 241.909 157.032 241.728 157.843 241.728C158.643 241.728 159.309 241.899 159.843 242.24C160.387 242.581 160.792 243.061 161.059 243.68C161.336 244.288 161.475 244.997 161.475 245.808V246.368H155.795V245.168H159.715L159.443 245.392C159.443 244.72 159.304 244.213 159.027 243.872C158.76 243.52 158.371 243.344 157.859 243.344C157.475 243.344 157.149 243.44 156.883 243.632C156.627 243.813 156.429 244.085 156.291 244.448C156.163 244.8 156.099 245.237 156.099 245.76V246.016C156.099 246.805 156.291 247.392 156.675 247.776C157.069 248.16 157.635 248.352 158.371 248.352C158.808 248.352 159.219 248.299 159.603 248.192C159.997 248.075 160.371 247.893 160.723 247.648L161.395 249.248C160.989 249.547 160.52 249.776 159.987 249.936C159.464 250.096 158.899 250.176 158.291 250.176Z" fill="#F95738"/>
<path d="M4.33809 160.378L14.6998 155.921L15.6862 158.213L7.24989 161.843L9.2607 166.517L7.33533 167.345L4.33809 160.378ZM7.87494 168.599L15.3266 165.393L16.2814 167.613L8.82976 170.819L7.87494 168.599ZM16.5085 164.78L18.5809 163.889L19.6052 166.27L17.5329 167.161L16.5085 164.78ZM6.07335 173.44C5.9806 173.224 5.90045 172.998 5.83289 172.76C5.76111 172.512 5.72437 172.278 5.72266 172.058L7.44227 171.318C7.46209 171.472 7.48892 171.629 7.52276 171.789C7.55238 171.939 7.5967 172.082 7.65572 172.219C7.79062 172.533 7.9982 172.745 8.27848 172.857C8.55317 172.983 8.92568 172.944 9.396 172.742L17.0681 169.441L18.0229 171.661L10.2479 175.006C9.2779 175.423 8.44396 175.509 7.74612 175.263C7.05249 175.028 6.4949 174.42 6.07335 173.44ZM18.2437 168.814L20.3161 167.922L21.3468 170.318L19.2744 171.209L18.2437 168.814ZM12.442 179.66C12.1638 179.013 12.0739 178.373 12.1725 177.738C12.2753 177.113 12.5546 176.534 13.0104 176.002C13.4705 175.479 14.1072 175.042 14.9204 174.692C15.7239 174.346 16.4737 174.186 17.1698 174.212C17.866 174.238 18.4734 174.435 18.9921 174.804C19.5207 175.169 19.924 175.675 20.2023 176.321C20.4552 176.909 20.5387 177.495 20.4526 178.077C20.3806 178.666 20.1432 179.139 19.7403 179.499L19.6581 179.308L24.4201 177.259L25.3749 179.478L14.5576 184.132L13.6154 181.942L15.0705 181.316L15.1527 181.507C14.5953 181.561 14.0685 181.416 13.5722 181.072C13.0759 180.729 12.6992 180.258 12.442 179.66ZM14.4021 179.601C14.6213 180.11 14.9796 180.444 15.477 180.601C15.9745 180.759 16.6004 180.675 17.3549 180.351C18.1094 180.026 18.5955 179.631 18.8134 179.166C19.0312 178.701 19.0305 178.213 18.8113 177.704C18.5921 177.194 18.2366 176.854 17.7447 176.682C17.2571 176.52 16.636 176.602 15.8816 176.926C15.1271 177.251 14.636 177.648 14.4084 178.117C14.185 178.597 14.1829 179.091 14.4021 179.601ZM16.7914 189.77C16.4204 188.907 16.2589 188.1 16.3069 187.348C16.3549 186.596 16.5983 185.934 17.0373 185.361C17.4861 184.785 18.1073 184.326 18.901 183.985C19.6751 183.652 20.4165 183.513 21.1253 183.568C21.8383 183.633 22.4745 183.87 23.0339 184.28C23.6073 184.695 24.0542 185.275 24.3746 186.019C24.6908 186.754 24.7975 187.434 24.6947 188.059C24.5962 188.693 24.3154 189.255 23.8525 189.745C23.4036 190.24 22.8068 190.648 22.0621 190.968L21.5477 191.189L19.303 185.972L20.4053 185.498L21.9545 189.098L21.6412 188.937C22.2585 188.671 22.6691 188.344 22.8731 187.954C23.091 187.57 23.0988 187.143 22.8965 186.673C22.7447 186.32 22.528 186.059 22.2462 185.89C21.9785 185.726 21.6506 185.653 21.2627 185.669C20.8888 185.69 20.4617 185.804 19.9816 186.011L19.7465 186.112C19.0214 186.424 18.5583 186.832 18.3574 187.337C18.1606 187.851 18.2077 188.446 18.4985 189.122C18.6714 189.524 18.8827 189.88 19.1324 190.191C19.3962 190.507 19.7103 190.778 20.0747 191.004L18.8706 192.254C18.436 192 18.0399 191.659 17.6821 191.233C17.3286 190.816 17.0317 190.328 16.7914 189.77ZM18.8172 194.033L24.3288 191.662C24.6423 191.527 24.9565 191.38 25.2715 191.221C25.5962 191.058 25.9118 190.888 26.2182 190.709L27.1351 192.84L25.8231 193.597L25.7472 193.42C26.3425 193.454 26.8694 193.64 27.3279 193.977C27.7864 194.314 28.1442 194.781 28.4013 195.379C28.7765 196.251 28.8021 197.012 28.478 197.662C28.168 198.318 27.4839 198.874 26.4257 199.329L21.9283 201.264L20.9735 199.045L25.368 197.154C25.9069 196.922 26.2469 196.66 26.3879 196.367C26.529 196.074 26.5152 195.732 26.3466 195.34C26.1358 194.85 25.8104 194.525 25.3704 194.366C24.9402 194.203 24.4654 194.233 23.9461 194.456L19.772 196.252L18.8172 194.033Z" fill="#F4D35E"/>
<path d="M27.4749 65.8237L23.8784 53.9419L25.4237 52.5736L36.8306 57.5399L34.9379 59.2157L31.8408 57.7694L33.0276 57.6375L28.0083 62.0817L28.295 60.909L29.3556 64.1585L27.4749 65.8237ZM26.3846 55.2276L28.0849 60.2615L27.3584 60.0927L31.1318 56.7516L31.2594 57.4507L26.4325 55.1852L26.3846 55.2276ZM37.7538 56.7224L33.5748 52.0027L32.4248 53.0209L31.2262 51.6673L32.8913 50.1929L32.7899 51.1162L32.0156 50.2417C31.3155 49.4511 30.9924 48.6759 31.0461 47.9159C31.1078 47.1489 31.55 46.4013 32.3725 45.6729C32.5562 45.5103 32.7625 45.349 32.9913 45.1891C33.2282 45.0222 33.4583 44.9039 33.6816 44.8344L34.912 46.2239C34.7648 46.283 34.6123 46.3682 34.4544 46.4795C34.2895 46.5828 34.1391 46.6946 34.0033 46.8148C33.8197 46.9774 33.6762 47.1614 33.5731 47.3667C33.4779 47.565 33.4496 47.7824 33.4881 48.019C33.5276 48.2405 33.6569 48.475 33.8761 48.7226L34.4382 49.3575L33.9215 49.2808L35.7064 47.7004L36.9049 49.054L35.3836 50.4011L39.5626 55.1208L37.7538 56.7224ZM44.2177 51.2341C43.6746 51.715 43.1265 52.0935 42.5732 52.3697C42.0199 52.6459 41.4921 52.814 40.9897 52.8742L40.3962 51.2626C40.8774 51.1785 41.3551 51.0262 41.8295 50.8057C42.3118 50.578 42.7406 50.2981 43.116 49.9657C43.4674 49.6546 43.6774 49.3689 43.7461 49.1086C43.8148 48.8483 43.7643 48.6223 43.5946 48.4306C43.4532 48.2709 43.2877 48.1966 43.0981 48.2078C42.9165 48.2119 42.6962 48.2929 42.4373 48.451L41.0019 49.3159C40.3909 49.6717 39.8259 49.83 39.3068 49.7909C38.7878 49.7519 38.3303 49.5087 37.9343 49.0615C37.5879 48.6702 37.3876 48.2348 37.3336 47.7555C37.2805 47.2611 37.3794 46.7533 37.6302 46.232C37.881 45.7108 38.274 45.2132 38.809 44.7395C39.2642 44.3364 39.745 44.0105 40.2513 43.7617C40.7575 43.5128 41.257 43.3769 41.7495 43.354L42.2872 44.9508C41.877 44.9863 41.4587 45.0932 41.0323 45.2713C40.6139 45.4423 40.2569 45.6587 39.9614 45.9203C39.5781 46.2597 39.3591 46.5675 39.3046 46.8438C39.2429 47.1121 39.297 47.3421 39.4667 47.5337C39.5939 47.6775 39.7479 47.7549 39.9286 47.7658C40.1173 47.7697 40.3367 47.7037 40.5867 47.5678L42.0341 46.6923C42.654 46.3144 43.2204 46.1334 43.7332 46.1495C44.2461 46.1655 44.7076 46.4051 45.1177 46.8683C45.4925 47.2916 45.6989 47.75 45.7369 48.2434C45.7749 48.7369 45.661 49.2438 45.3951 49.7642C45.1373 50.2774 44.7448 50.7674 44.2177 51.2341ZM50.9368 45.2848C50.29 45.8575 49.6098 46.2318 48.8964 46.4076C48.183 46.5834 47.4823 46.5484 46.7945 46.3025C46.1067 46.0567 45.4729 45.6064 44.8931 44.9515C44.3062 44.2887 43.9394 43.609 43.7928 42.9125C43.6472 42.2009 43.7043 41.5092 43.9643 40.8373C44.2322 40.1584 44.6896 39.5326 45.3365 38.9598C45.7438 38.5992 46.1921 38.3091 46.6815 38.0894C47.1789 37.8627 47.6468 37.7476 48.0853 37.744L48.6613 39.4565C48.2991 39.4496 47.9473 39.5189 47.6059 39.6644C47.2655 39.7949 46.9755 39.9662 46.7359 40.1783C46.2488 40.6097 46.0038 41.0973 46.001 41.6412C45.9982 42.185 46.2513 42.7445 46.7604 43.3195C47.2696 43.8945 47.7942 44.2135 48.3345 44.2765C48.8747 44.3396 49.3884 44.1555 49.8755 43.7241C50.1071 43.5191 50.3118 43.2595 50.4896 42.9453C50.6753 42.6241 50.7943 42.2838 50.8463 41.9242L52.4659 42.6914C52.4013 43.1333 52.2299 43.5914 51.9517 44.0656C51.6744 44.5248 51.3361 44.9312 50.9368 45.2848ZM53.9921 42.3445L46.1855 33.5279L47.9944 31.9263L51.431 35.8075L51.2513 35.9666C51.0823 35.3896 51.09 34.8271 51.2745 34.2791C51.4589 33.7312 51.7947 33.2415 52.2818 32.8102C52.9926 32.1808 53.7075 31.9182 54.4266 32.0224C55.1386 32.1185 55.8694 32.5899 56.6189 33.4364L59.8858 37.126L58.0769 38.7276L54.8843 35.1219C54.5096 34.6986 54.161 34.4659 53.8386 34.4236C53.5243 34.3743 53.2034 34.4946 52.8759 34.7845C52.4766 35.138 52.2668 35.5447 52.2464 36.0044C52.226 36.4641 52.3997 36.9016 52.7674 37.3168L55.8009 40.7428L53.9921 42.3445ZM64.5099 33.2666C63.8072 33.8889 63.0911 34.295 62.3617 34.4849C61.6323 34.6748 60.9272 34.6509 60.2465 34.4131C59.5587 34.1672 58.9284 33.7209 58.3556 33.074C57.797 32.4431 57.4329 31.7825 57.2633 31.0921C57.1016 30.3947 57.1277 29.7162 57.3416 29.0566C57.5564 28.3821 57.9673 27.7761 58.5742 27.2387C59.1732 26.7083 59.7854 26.3942 60.411 26.2962C61.0446 26.1911 61.6662 26.2818 62.276 26.5682C62.8867 26.8395 63.4607 27.2787 63.9982 27.8856L64.3694 28.3049L60.1168 32.0703L59.3213 31.1718L62.2562 28.5732L62.201 28.9212C61.7556 28.4181 61.3159 28.1307 60.8819 28.059C60.4489 27.9722 60.0408 28.0985 59.6575 28.4379C59.37 28.6925 59.19 28.9801 59.1177 29.3006C59.0462 29.606 59.0788 29.9405 59.2154 30.304C59.3529 30.6524 59.5949 31.0222 59.9414 31.4135L60.1111 31.6052C60.6343 32.1962 61.167 32.5081 61.7091 32.541C62.2591 32.5669 62.8096 32.3359 63.3607 31.848C63.6881 31.5581 63.9602 31.2459 64.177 30.9115C64.3947 30.562 64.554 30.1787 64.6549 29.7617L66.2187 30.5141C66.1132 31.0065 65.9139 31.4893 65.6206 31.9626C65.3354 32.4289 64.9652 32.8636 64.5099 33.2666ZM67.9248 30.008L62.5472 23.9346L64.356 22.333L69.7336 28.4063L67.9248 30.008ZM61.5949 23.0039L60.0994 21.3149L62.04 19.5966L63.5355 21.2857L61.5949 23.0039ZM73.7125 25.1184C73.1854 25.5851 72.6051 25.8709 71.9715 25.976C71.3459 26.074 70.7088 25.99 70.06 25.7238C69.4192 25.4507 68.8053 24.9826 68.2184 24.3198C67.6386 23.665 67.2519 23.0029 67.0583 22.3338C66.8647 21.6646 66.8619 21.0259 67.05 20.4177C67.231 19.8015 67.5851 19.2601 68.1121 18.7934C68.5913 18.3691 69.1211 18.1066 69.7015 18.0059C70.2828 17.8901 70.8071 17.9673 71.2743 18.2375L71.1185 18.3754L67.682 14.4941L69.4908 12.8925L77.2973 21.7091L75.5125 23.2895L74.4624 22.1036L74.6181 21.9657C74.8439 22.4781 74.8712 23.0239 74.7 23.6029C74.5288 24.1819 74.1996 24.687 73.7125 25.1184ZM73.0424 23.2754C73.4577 22.9077 73.6623 22.463 73.6562 21.9413C73.6501 21.4195 73.3748 20.8512 72.8303 20.2362C72.2859 19.6213 71.7586 19.2832 71.2485 19.222C70.7383 19.1608 70.2756 19.314 69.8604 19.6817C69.4451 20.0494 69.233 20.4937 69.224 21.0145C69.223 21.5283 69.4947 22.0927 70.0392 22.7076C70.5837 23.3225 71.1145 23.6646 71.6317 23.7338C72.1569 23.7959 72.6271 23.6431 73.0424 23.2754Z" fill="#083D77"/>
<path d="M169.268 30.4005C168.605 29.7824 168.061 29.1223 167.636 28.4202C167.211 27.7182 166.93 27.0337 166.794 26.3668L168.663 25.4407C168.761 25.8674 168.9 26.2814 169.08 26.6826C169.261 27.0838 169.482 27.4722 169.744 27.8479C170.014 28.2158 170.328 28.567 170.687 28.9015C171.249 29.4252 171.727 29.7102 172.121 29.7567C172.522 29.8105 172.847 29.7048 173.094 29.4395C173.32 29.1976 173.409 28.9378 173.361 28.6603C173.329 28.3822 173.146 27.9999 172.811 27.5136L171.692 25.9454C171.081 25.0839 170.762 24.2914 170.737 23.5677C170.711 22.8441 170.989 22.1702 171.571 21.5459C172.066 21.0153 172.635 20.6858 173.28 20.5575C173.924 20.4291 174.602 20.4921 175.313 20.7463C176.032 21.0078 176.734 21.4586 177.421 22.0986C178.006 22.644 178.476 23.235 178.83 23.8716C179.185 24.5082 179.384 25.1313 179.428 25.7411L177.646 26.5736C177.566 26.018 177.386 25.4922 177.104 24.9965C176.838 24.5002 176.462 24.0266 175.979 23.5757C175.471 23.103 174.998 22.8291 174.557 22.754C174.125 22.6862 173.763 22.8084 173.472 23.1205C173.254 23.3546 173.158 23.6222 173.183 23.9231C173.216 24.2163 173.399 24.5986 173.733 25.0698L174.84 26.6045C175.467 27.4805 175.797 28.2764 175.83 28.9923C175.862 29.7081 175.595 30.3703 175.028 30.979C174.548 31.494 173.989 31.8117 173.352 31.9323C172.722 32.0601 172.052 31.9969 171.341 31.7426C170.646 31.4879 169.954 31.0405 169.268 30.4005ZM176.726 37.3517C176.094 36.7626 175.656 36.1214 175.413 35.4281C175.17 34.7347 175.138 34.034 175.316 33.3258C175.495 32.6176 175.883 31.9436 176.479 31.3038C177.083 30.6561 177.724 30.226 178.404 30.0134C179.098 29.8003 179.792 29.791 180.486 29.9854C181.187 30.1872 181.854 30.5826 182.486 31.1717C182.884 31.5426 183.216 31.9611 183.481 32.4272C183.754 32.9006 183.914 33.3554 183.959 33.7915L182.31 34.5288C182.282 34.1675 182.179 33.8239 182.002 33.4981C181.839 33.1718 181.641 32.8995 181.407 32.6813C180.931 32.2377 180.422 32.0405 179.88 32.0897C179.339 32.139 178.806 32.4445 178.283 33.0063C177.759 33.5682 177.492 34.121 177.48 34.6648C177.469 35.2085 177.702 35.7022 178.178 36.1459C178.404 36.3568 178.682 36.5357 179.012 36.6826C179.349 36.8367 179.7 36.9225 180.062 36.9399L179.454 38.6255C179.008 38.6034 178.535 38.4767 178.037 38.2452C177.553 38.0131 177.116 37.7153 176.726 37.3517ZM179.945 40.1115L187.974 31.4969L189.742 33.1441L186.207 36.9364L186.031 36.7728C186.59 36.5494 187.15 36.5032 187.713 36.6343C188.277 36.7655 188.796 37.0529 189.272 37.4965C189.967 38.1437 190.296 38.8302 190.261 39.556C190.234 40.2739 189.835 41.0465 189.064 41.8736L185.704 45.4786L183.936 43.8314L187.22 40.3083C187.605 39.8947 187.804 39.5255 187.815 39.2006C187.834 38.8829 187.684 38.575 187.364 38.2768C186.974 37.9132 186.549 37.7433 186.089 37.767C185.63 37.7907 185.211 38.0054 184.833 38.4112L181.713 41.7587L179.945 40.1115ZM189.157 48.9376C188.416 48.2467 188.055 47.5311 188.074 46.7908C188.1 46.0427 188.503 45.2512 189.281 44.4163L192.619 40.8347L194.386 42.4819L191.048 46.0635C190.699 46.4381 190.515 46.7842 190.496 47.1018C190.485 47.4268 190.639 47.7383 190.959 48.0365C191.31 48.3637 191.712 48.5119 192.164 48.4809C192.63 48.4494 193.057 48.2268 193.442 47.8133L196.54 44.4892L198.308 46.1364L192.777 52.0706L191.056 50.467L192.114 49.3317L192.278 49.4844C191.728 49.7151 191.179 49.7872 190.633 49.7008C190.094 49.6066 189.602 49.3522 189.157 48.9376ZM194.233 53.4279L202.262 44.8134L204.029 46.4606L196 55.0752L194.233 53.4279ZM199.654 58.7211C199.139 58.2411 198.799 57.6908 198.634 57.0702C198.476 56.4569 198.499 55.8146 198.702 55.1433C198.912 54.4793 199.32 53.8234 199.923 53.1758C200.52 52.5359 201.141 52.0876 201.789 51.8309C202.437 51.5741 203.072 51.5103 203.696 51.6393C204.326 51.7605 204.899 52.0611 205.414 52.5411C205.882 52.9774 206.194 53.4796 206.35 54.0477C206.521 54.6153 206.494 55.1445 206.27 55.6354L206.118 55.4936L209.652 51.7013L211.42 53.3486L203.391 61.9632L201.647 60.3377L202.727 59.179L202.879 59.3208C202.391 59.5946 201.85 59.674 201.257 59.559C200.665 59.444 200.13 59.1647 199.654 58.7211ZM201.424 57.8776C201.83 58.2558 202.293 58.4169 202.811 58.3609C203.33 58.3049 203.869 57.9765 204.429 57.3757C204.989 56.7748 205.275 56.2176 205.288 55.704C205.3 55.1904 205.103 54.7444 204.697 54.3663C204.291 53.9881 203.829 53.8195 203.31 53.8604C202.798 53.9086 202.262 54.2331 201.702 54.8339C201.142 55.4348 200.853 55.9959 200.833 56.5173C200.822 57.046 201.019 57.4995 201.424 57.8776Z" fill="#EE964B"/>
<path d="M219.1 196.829L208.783 192.269L209.792 189.986L213.933 191.817L216.023 187.09L211.881 185.259L212.897 182.962L223.214 187.522L222.198 189.82L217.911 187.924L215.821 192.651L220.109 194.547L219.1 196.829ZM225.79 182.13C225.44 182.921 224.98 183.54 224.409 183.987C223.833 184.42 223.186 184.671 222.468 184.738C221.754 184.796 220.997 184.648 220.197 184.294C219.407 183.945 218.793 183.487 218.356 182.92C217.922 182.344 217.677 181.699 217.619 180.985C217.566 180.262 217.713 179.505 218.063 178.715C218.412 177.925 218.872 177.306 219.443 176.859C220.014 176.411 220.656 176.159 221.37 176.101C222.088 176.033 222.842 176.174 223.632 176.524C224.432 176.877 225.049 177.342 225.482 177.919C225.92 178.485 226.17 179.132 226.233 179.86C226.287 180.583 226.139 181.34 225.79 182.13ZM224.121 181.393C224.346 180.886 224.342 180.406 224.11 179.954C223.883 179.492 223.394 179.095 222.642 178.763C221.891 178.431 221.273 178.338 220.788 178.485C220.308 178.623 219.955 178.945 219.731 179.452C219.507 179.96 219.503 180.442 219.721 180.9C219.943 181.348 220.429 181.738 221.181 182.07C221.932 182.402 222.553 182.501 223.043 182.368C223.538 182.225 223.897 181.9 224.121 181.393ZM229.693 173.299C229.344 174.089 228.884 174.708 228.313 175.155C227.737 175.588 227.09 175.839 226.372 175.906C225.658 175.964 224.901 175.816 224.101 175.462C223.311 175.113 222.697 174.655 222.259 174.089C221.826 173.512 221.581 172.867 221.523 172.154C221.469 171.43 221.617 170.673 221.967 169.883C222.316 169.093 222.776 168.474 223.347 168.027C223.918 167.579 224.56 167.327 225.274 167.269C225.992 167.202 226.746 167.342 227.536 167.692C228.336 168.045 228.953 168.51 229.386 169.087C229.824 169.653 230.074 170.3 230.137 171.028C230.191 171.752 230.043 172.508 229.693 173.299ZM228.025 172.561C228.249 172.054 228.246 171.574 228.014 171.122C227.787 170.66 227.298 170.263 226.546 169.931C225.795 169.599 225.177 169.506 224.692 169.653C224.212 169.791 223.859 170.113 223.635 170.621C223.411 171.128 223.407 171.61 223.625 172.068C223.847 172.516 224.333 172.906 225.084 173.238C225.836 173.57 226.456 173.67 226.947 173.536C227.441 173.394 227.801 173.068 228.025 172.561ZM235.045 169.305L226.396 165.482C226.084 165.344 225.763 165.214 225.432 165.091C225.092 164.964 224.752 164.848 224.413 164.745L225.351 162.623L226.877 163.088L226.806 163.249C226.383 162.887 226.133 162.409 226.057 161.816C225.972 161.218 226.062 160.617 226.33 160.012C226.614 159.368 227.021 158.871 227.549 158.522C228.067 158.168 228.674 157.981 229.37 157.962C230.071 157.934 230.821 158.096 231.621 158.45C232.431 158.808 233.061 159.256 233.512 159.793C233.966 160.321 234.242 160.897 234.339 161.523C234.435 162.149 234.341 162.784 234.057 163.428C233.794 164.023 233.417 164.492 232.927 164.835C232.442 165.169 231.93 165.31 231.393 165.259L231.47 165.083L236.022 167.095L235.045 169.305ZM232.091 163.363C232.319 162.846 232.322 162.352 232.099 161.88C231.876 161.408 231.389 161.006 230.638 160.674C229.887 160.342 229.266 160.255 228.777 160.412C228.288 160.569 227.929 160.906 227.701 161.423C227.476 161.93 227.469 162.422 227.678 162.9C227.891 163.367 228.373 163.767 229.124 164.099C229.875 164.431 230.501 164.521 231 164.368C231.503 164.206 231.867 163.871 232.091 163.363Z" fill="#EBEBD3"/>
<defs>
<radialGradient id="paint0_angular_332_114" cx="0" cy="0" r="1" gradientUnits="userSpaceOnUse" gradientTransform="translate(119.5 115) rotate(-90) scale(115 119.5)">
<stop stop-color="#083D77"/>
<stop offset="0.246245" stop-color="#083D77"/>
<stop offset="0.247563" stop-color="#F4D35E"/>
<stop offset="0.421875" stop-color="#F4D35E"/>
<stop offset="0.421975" stop-color="#F95738"/>
<stop offset="0.577816" stop-color="#F95738"/>
<stop offset="0.578025" stop-color="#FCDDEC"/>
<stop offset="0.578125" stop-color="#EBEBD3"/>
<stop offset="0.661458" stop-color="#EBEBD3"/>
<stop offset="0.755208" stop-color="#EBEBD3"/>
<stop offset="0.755308" stop-color="#EE964B"/>
<stop offset="1" stop-color="#EE964B"/>
</radialGradient>
</defs>
</svg>
